<?xml version="1.0" encoding="UTF-8" standalone="no"?>
<svg
   xmlns:dc="http://purl.org/dc/elements/1.1/"
   xmlns:cc="http://creativecommons.org/ns#"
   xmlns:rdf="http://www.w3.org/1999/02/22-rdf-syntax-ns#"
   xmlns:svg="http://www.w3.org/2000/svg"
   xmlns="http://www.w3.org/2000/svg"
   xmlns:sodipodi="http://sodipodi.sourceforge.net/DTD/sodipodi-0.dtd"
   xmlns:inkscape="http://www.inkscape.org/namespaces/inkscape"
   id="svg"
   version="1.1"
   width="30"
   height="30"
   viewBox="0 0 30 30"
   inkscape:version="0.91 r13725"
   sodipodi:docname="tree2.svg">
  <metadata
     id="metadata10">
    <rdf:RDF>
      <cc:Work
         rdf:about="">
        <dc:format>image/svg+xml</dc:format>
        <dc:type
           rdf:resource="http://purl.org/dc/dcmitype/StillImage" />
        <dc:title></dc:title>
      </cc:Work>
    </rdf:RDF>
  </metadata>
  <defs
     id="defs8" />
  <sodipodi:namedview
     pagecolor="#ffffff"
     bordercolor="#666666"
     borderopacity="1"
     objecttolerance="10"
     gridtolerance="10"
     guidetolerance="10"
     inkscape:pageopacity="0"
     inkscape:pageshadow="2"
     inkscape:window-width="1536"
     inkscape:window-height="801"
     id="namedview6"
     showgrid="false"
     inkscape:zoom="18.88"
     inkscape:cx="17.241578"
     inkscape:cy="14.643721"
     inkscape:window-x="-8"
     inkscape:window-y="-8"
     inkscape:window-maximized="1"
     inkscape:current-layer="svg" />
  <g
     id="svgg"
     transform="matrix(0.08071633,0,0,0.07766609,-0.98467526,-0.32332307)">
    <path
       id="path0"
       d="m 162.2,6.756 c -1.487,0.378 -2.952,1.127 -4,2.044 -0.44,0.385 -1.744,1.006 -2.897,1.381 -1.784,0.58 -2.822,1.408 -6.949,5.55 -6.868,6.893 -5.116,6.263 -17.434,6.266 -13.355,0.004 -13.879,0.109 -17.381,3.49 -2.621,2.531 -2.726,2.586 -5.528,2.938 -4.813,0.604 -5.948,1.43 -7.388,5.375 -1.22,3.342 -1.866,3.798 -5.393,3.81 -3.924,0.012 -6.191,0.556 -8.389,2.012 -1.701,1.127 -1.971,1.178 -6.237,1.178 -7.005,0 -7.404,0.191 -14.067,6.734 -5.154,5.061 -5.728,5.767 -6.386,7.856 -0.56,1.774 -1.282,2.87 -3.184,4.828 -1.784,1.839 -2.647,3.107 -3.143,4.623 -0.375,1.149 -1.09,2.645 -1.588,3.324 -0.497,0.679 -1.232,2.135 -1.632,3.235 -0.401,1.1 -1.137,2.493 -1.636,3.095 -1.419,1.711 -2.168,4.956 -2.168,9.386 l 0,3.958 -1.5,0.526 c -1.793,0.629 -9.012,7.909 -9.72,9.802 -0.971,2.598 -1.434,3.311 -3.808,5.875 -2.85,3.076 -3.372,4.572 -3.372,9.665 0,3.066 -0.086,3.435 -1.007,4.3 -1.561,1.466 -2.193,4.288 -2.193,9.796 0,4.667 -0.039,4.894 -1.002,5.799 -0.551,0.518 -1.309,1.944 -1.683,3.17 -0.374,1.225 -1.08,2.721 -1.568,3.323 -1.006,1.241 -2.147,4.799 -2.147,6.693 0,0.729 -0.419,1.814 -0.988,2.561 -2.663,3.491 -2.686,10.598 -0.046,13.739 0.514,0.611 1.23,1.981 1.59,3.043 0.361,1.062 0.913,2.429 1.228,3.038 0.523,1.011 0.481,1.332 -0.472,3.669 -0.575,1.409 -1.129,3.523 -1.231,4.698 -0.128,1.473 -0.464,2.436 -1.081,3.102 -2.897,3.126 -2.879,13.468 0.03,16.924 0.624,0.743 0.97,1.655 0.97,2.56 0,1.929 1.373,6.181 2.331,7.222 0.654,0.711 0.814,1.569 0.94,5.056 0.206,5.703 2.412,9.2 5.801,9.2 0.231,0 0.717,0.779 1.081,1.732 0.78,2.042 2.469,3.783 4.089,4.215 l 1.158,0.308 0.209,6.173 c 0.265,7.804 0.635,8.981 3.879,12.339 1.382,1.43 2.512,2.817 2.512,3.083 0,2.93 10.706,14.375 14.593,15.6 1.613,0.509 2.823,1.305 4.667,3.07 3.957,3.789 3.183,3.64 20.208,3.875 14.261,0.197 14.913,0.239 16,1.037 0.622,0.458 1.997,1.126 3.055,1.484 1.057,0.358 2.45,1.095 3.095,1.638 0.645,0.542 2.147,1.27 3.338,1.616 1.649,0.479 2.626,1.11 4.104,2.649 1.887,1.965 4.349,3.581 5.454,3.581 0.3,0 1.409,0.614 2.465,1.365 1.056,0.751 2.692,1.559 3.636,1.797 0.945,0.238 2.227,0.858 2.851,1.377 2.258,1.882 3.575,2.061 15.134,2.061 13.019,0 13.966,-0.249 15.835,-4.172 1.031,-2.163 1.753,-2.746 3.465,-2.8 l 0.9,-0.028 0,7.33 c 0,7.316 -0.002,7.332 -1.007,8.277 -2.069,1.943 -2.193,3.299 -2.193,23.92 l 0,18.981 -0.954,0.884 c -1.324,1.227 -2.246,4.733 -2.246,8.541 0,3.659 -0.559,4.449 -3.752,5.307 -0.906,0.243 -2.358,0.963 -3.227,1.601 -0.911,0.669 -2.095,1.163 -2.8,1.169 -2.112,0.017 -4.766,0.793 -6.282,1.838 -0.804,0.554 -2.316,1.264 -3.361,1.579 -1.046,0.314 -2.458,0.994 -3.139,1.51 -1,0.756 -1.935,0.988 -4.839,1.197 -8.413,0.605 -10.2,2.789 -10.2,12.466 0,7.356 1.49,10.737 5.228,11.865 3.19,0.963 162.754,0.773 165.267,-0.196 3.41,-1.316 4.705,-4.527 4.705,-11.669 0,-9.533 -1.824,-11.878 -9.666,-12.428 -2.982,-0.209 -4.018,-0.452 -5.144,-1.209 -0.776,-0.521 -2.251,-1.2 -3.279,-1.51 -1.028,-0.309 -2.353,-0.943 -2.945,-1.408 -1.241,-0.976 -4.549,-2.044 -6.339,-2.046 -2.183,-0.003 -3.827,-1.344 -3.827,-3.121 0,-2.054 -1.075,-5.599 -2.147,-7.078 -0.903,-1.247 -1.439,-2.312 -2.249,-4.471 -0.262,-0.699 -0.821,-1.582 -1.241,-1.962 -0.711,-0.644 -0.763,-1.353 -0.763,-10.365 0,-10.503 -0.307,-12.601 -2.129,-14.556 -0.763,-0.82 -1.016,-1.612 -1.169,-3.658 -0.203,-2.714 -1.466,-5.846 -2.52,-6.25 -1.148,-0.441 -0.818,-12.043 0.379,-13.316 1.245,-1.325 2.239,-4.339 2.239,-6.793 0,-1.332 0.183,-2.014 0.582,-2.167 1.075,-0.412 2.33,-3.558 2.53,-6.338 l 0.192,-2.675 3.528,-3.503 c 5.546,-5.506 8.036,-6.09 10.006,-2.346 1.307,2.483 2.557,3.236 6.368,3.833 5.878,0.921 13.179,-0.007 15.32,-1.948 0.672,-0.609 2.255,-0.708 14.215,-0.893 15.466,-0.239 14.889,-0.118 18.728,-3.92 1.901,-1.882 2.904,-2.554 4.359,-2.921 2.915,-0.734 7.128,-4.872 8.036,-7.893 0.516,-1.718 1.227,-2.832 2.973,-4.658 1.262,-1.32 2.689,-3.255 3.173,-4.3 0.542,-1.173 1.137,-1.9 1.556,-1.9 0.372,0 1.568,-0.566 2.656,-1.257 1.088,-0.691 2.788,-1.523 3.778,-1.849 2.806,-0.925 6.534,-4.789 7.639,-7.918 0.791,-2.242 1.422,-3.03 6.43,-8.031 4.963,-4.955 5.625,-5.778 6.228,-7.745 0.371,-1.21 1.065,-2.577 1.543,-3.038 1.977,-1.909 2.241,-4.352 2.102,-19.416 l -0.128,-13.889 2.634,-2.729 c 1.449,-1.501 2.763,-3.179 2.919,-3.728 0.549,-1.937 1.11,-3.087 2.619,-5.374 2.286,-3.463 1.567,-20.107 -0.96,-22.204 -0.471,-0.392 -0.626,-1.3 -0.626,-3.677 0,-1.736 -0.296,-4.22 -0.657,-5.519 -0.609,-2.19 -0.609,-2.552 0,-4.976 2.06,-8.199 0.641,-17.896 -3.163,-21.626 -1.991,-1.952 -2.605,-2.867 -3.155,-4.699 -0.799,-2.659 -2.126,-4.143 -4.28,-4.789 l -1.545,-0.463 0,-9.073 c 0,-11.145 -0.182,-11.937 -3.536,-15.371 -1.731,-1.773 -2.609,-3.078 -3.247,-4.829 -0.481,-1.32 -1.199,-2.76 -1.596,-3.2 -0.396,-0.44 -1.114,-1.88 -1.596,-3.2 -1.334,-3.659 -5.012,-7.108 -8.459,-7.934 -0.568,-0.136 -1.712,-0.787 -2.542,-1.447 -0.829,-0.659 -2.132,-1.315 -2.893,-1.458 -0.762,-0.143 -2.277,-0.873 -3.366,-1.622 -2.397,-1.649 -4.725,-2.139 -10.166,-2.139 -4.963,0 -5.721,-0.428 -6.794,-3.838 -1.11,-3.531 -5.237,-7.483 -8.673,-8.305 -0.587,-0.141 -2.333,-1.417 -3.879,-2.835 -1.958,-1.798 -3.332,-2.717 -4.532,-3.032 -0.946,-0.248 -2.351,-0.947 -3.121,-1.552 -1.939,-1.524 -3.466,-1.972 -7.724,-2.269 -2.804,-0.195 -4.008,-0.467 -5.076,-1.144 -2.181,-1.385 -3.879,-1.825 -7.034,-1.825 -3.752,0 -4.697,-0.385 -7.366,-3 -3.238,-3.174 -3.045,-3.134 -16.4,-3.381 L 245.8,21.8 244.2,20.73 c -0.88,-0.589 -2.344,-1.265 -3.253,-1.503 -0.91,-0.238 -1.9,-0.731 -2.2,-1.095 -1.031,-1.249 -3.71,-2.086 -7.557,-2.361 -3.217,-0.23 -4.053,-0.442 -5.531,-1.403 -4.019,-2.612 -19.051,-2.583 -22.928,0.045 -2.634,1.784 -3.519,1.604 -6.681,-1.366 -2.77,-2.602 -4.736,-3.447 -8.016,-3.447 -0.619,0 -1.555,-0.335 -2.08,-0.743 C 183.136,6.66 182.823,6.605 172.8,6.525 167.63,6.484 162.86,6.588 162.2,6.756 m 18.638,22.951 c 3.946,3.209 5.624,4.285 8.28,5.309 l 2.919,1.125 2.081,-0.751 c 1.886,-0.68 3.67,-0.764 18.965,-0.891 19.434,-0.16 18.933,-0.228 22.911,3.096 4.168,3.482 9.449,4.262 15.906,2.348 l 2.9,-0.86 2.9,0.86 c 1.595,0.473 3.311,0.859 3.813,0.858 1.966,-0.002 3.981,1.389 8.683,5.995 6.524,6.392 6.505,6.384 15.558,6.395 8.763,0.011 9.498,0.207 13.021,3.468 2.914,2.698 9.01,13.781 10.725,19.5 0.91,3.033 1.411,3.343 4.403,2.725 1.438,-0.297 5.897,-0.484 11.532,-0.484 l 9.186,0 4.39,2.166 c 7.674,3.788 7.789,4.033 7.789,16.57 l 0,9.484 -1.187,2.39 c -1.954,3.931 -1.607,5.176 1.937,6.965 4.237,2.138 7.888,8.4 6.895,11.825 -0.255,0.88 -0.752,2.95 -1.106,4.6 -0.353,1.65 -1.069,3.849 -1.591,4.887 -1.676,3.335 -1.303,5.039 1.869,8.547 0.813,0.899 2.437,3.599 3.609,6 l 2.131,4.366 -0.005,4.8 c -0.006,6.571 -2.715,10.84 -8.855,13.951 -3.674,1.862 -4.229,4.64 -1.897,9.505 l 1.4,2.921 0,12.668 0,12.667 -1.9,3.729 c -2.407,4.723 -3.051,5.195 -7.616,5.573 -4.07,0.337 -4.496,0.519 -8.014,3.42 -2.374,1.959 -4.764,2.966 -7.036,2.966 -0.892,0 -2.618,1.6 -3.418,3.169 -0.419,0.822 -1.85,2.825 -3.179,4.452 -1.97,2.411 -2.494,3.367 -2.832,5.169 -0.972,5.181 -5.339,8.236 -12.655,8.854 -3.543,0.299 -4.027,0.459 -9.453,3.135 -6.613,3.262 -6.162,3.185 -9.416,1.598 -1.379,-0.673 -3.509,-1.386 -4.734,-1.586 -5.66,-0.921 -8.376,-4.242 -4.914,-6.008 0.868,-0.442 2.118,-1.565 2.778,-2.494 1.954,-2.75 2.768,-3.45 4.319,-3.714 3.415,-0.582 4.578,-1.105 6.976,-3.14 1.386,-1.175 3.774,-2.77 5.307,-3.543 3.287,-1.659 7.147,-5.456 8.739,-8.597 1.422,-2.806 2.422,-3.375 6.501,-3.699 4.065,-0.323 4.992,-0.892 6.865,-4.211 0.725,-1.284 2.021,-3.097 2.879,-4.028 0.859,-0.932 2.181,-2.923 2.94,-4.425 0.758,-1.503 2.091,-3.542 2.962,-4.532 2.94,-3.341 3.079,-3.836 3.09,-11 0.018,-10.855 -4.262,-14.72 -12.162,-10.982 -4.809,2.275 -7.331,1.929 -11.358,-1.558 -4.73,-4.095 -8.704,-3.933 -10.923,0.446 -1.59,3.139 -5.824,7.314 -9.089,8.962 -1.509,0.762 -3.917,2.353 -5.351,3.536 -2.437,2.011 -4.787,2.996 -7.146,2.996 -1.041,0 -3.088,1.25 -5.205,3.178 -1.946,1.772 -4.22,2.822 -6.114,2.822 -1.452,0 -3.665,1.123 -5.806,2.948 -3.119,2.658 -4.281,3.121 -7.879,3.136 -7.101,0.031 -7.647,-3.216 -1.586,-9.433 5.286,-5.423 11.547,-18.667 10.427,-22.059 -1.576,-4.776 -5.183,-6.199 -9.797,-3.866 -1.62,0.819 -2.611,1.017 -5.218,1.042 -5.45,0.054 -6.582,-1.372 -6.582,-8.292 0,-6.643 -2.559,-10.063 -7.531,-10.063 -5.164,0 -11.269,6.338 -11.269,11.7 0,0.995 -1.376,2.529 -4.153,4.629 -1.149,0.869 -2.081,2.305 -3.902,6.011 -2.027,4.124 -2.938,5.462 -5.96,8.753 -1.962,2.137 -4.019,4.778 -4.572,5.868 -0.667,1.316 -1.643,2.418 -2.908,3.282 -2.367,1.617 -2.815,2.181 -3.13,3.944 -0.618,3.453 -1.107,4.537 -2.976,6.602 -2.395,2.644 -2.968,3.722 -3.594,6.757 -0.979,4.749 -4.632,5.898 -9.474,2.979 -0.698,-0.42 -2.662,-1.031 -4.366,-1.357 -1.703,-0.326 -3.383,-0.811 -3.731,-1.077 -0.349,-0.267 -1.65,-1.346 -2.893,-2.398 -1.242,-1.052 -3.228,-2.342 -4.412,-2.866 -1.185,-0.524 -3.232,-1.853 -4.549,-2.954 -1.317,-1.1 -3.291,-2.527 -4.385,-3.17 -1.094,-0.643 -2.711,-2.109 -3.592,-3.258 -0.882,-1.149 -2.424,-2.621 -3.426,-3.271 -1.675,-1.086 -2.161,-1.836 -5.955,-9.203 -4.786,-9.291 -4.673,-9.184 -9.724,-9.184 -3.659,0 -4.177,0.233 -8.898,3.997 -1.1,0.876 -3.308,2.071 -4.907,2.655 l -2.907,1.06 -2.893,-0.857 c -9.476,-2.809 -17.101,2.334 -15.165,10.229 0.48,1.955 0.872,3.865 0.872,4.245 0,0.38 0.605,1.901 1.345,3.381 1.096,2.193 1.397,3.355 1.629,6.29 0.373,4.737 0.611,5.154 6.274,11 3.666,3.784 5.121,5.599 5.984,7.461 0.628,1.354 2.067,3.514 3.2,4.8 1.133,1.287 2.67,3.616 3.416,5.178 1.677,3.51 5.272,7.105 8.966,8.965 1.422,0.716 3.653,2.192 4.957,3.279 1.304,1.088 3.464,2.527 4.8,3.199 1.336,0.673 3.445,2.101 4.688,3.174 1.242,1.073 3.249,2.39 4.46,2.925 6.918,3.06 7.557,6.917 1.681,10.159 -3.812,2.102 -5.154,2.208 -8.206,0.646 -1.956,-1.002 -2.761,-1.151 -7.414,-1.378 -5.155,-0.251 -5.263,-0.276 -8.6,-1.982 -4.239,-2.166 -4.232,-2.161 -5.468,-4.599 -0.62,-1.225 -2.96,-4.01 -5.927,-7.058 -2.772,-2.847 -5.46,-6.023 -6.186,-7.309 -2.413,-4.276 -2.765,-4.299 -10.144,-0.66 l -5.677,2.8 -7.863,0 c -10.08,0 -11.196,-0.456 -14.01,-5.723 -0.884,-1.655 -1.722,-2.605 -2.914,-3.304 -3.678,-2.155 -9.302,-13.117 -9.788,-19.078 -0.343,-4.205 -0.545,-4.685 -3.421,-8.095 -0.927,-1.1 -2.24,-3.106 -2.918,-4.458 -0.678,-1.351 -1.99,-3.331 -2.915,-4.4 -3.161,-3.65 -3.201,-3.865 -3.067,-16.372 L 41,177.537 l 1.493,-1.268 c 0.82,-0.698 2.042,-1.719 2.714,-2.269 2.548,-2.086 2.131,-5.683 -1.101,-9.494 -2.861,-3.372 -3.267,-4.562 -3.288,-9.646 -0.023,-5.307 0.435,-6.35 3.508,-7.989 5.599,-2.988 6.934,-6.864 4.274,-12.415 -1.26,-2.628 -1.4,-3.261 -1.4,-6.307 l 0,-3.386 3.22,-6.478 c 3.572,-7.183 4.123,-7.928 6.916,-9.35 1.065,-0.542 2.696,-1.686 3.625,-2.542 0.929,-0.856 2.758,-2.154 4.064,-2.884 3.743,-2.093 3.774,-2.211 3.774,-14.349 10e-4,-11.343 -0.075,-10.912 2.917,-16.564 2.569,-4.854 3.88,-6.002 7.703,-6.747 1.875,-0.365 4.654,-1.471 8.528,-3.395 6.894,-3.423 7.778,-3.529 12.109,-1.454 6.659,3.191 9.472,1.614 14.199,-7.958 4.496,-9.104 7.513,-11.767 13.9,-12.269 2.864,-0.225 4.202,-0.553 6.245,-1.529 3.208,-1.534 3.216,-1.534 6.4,0.052 l 2.6,1.295 6.47,0.005 c 7.958,0.005 7.771,0.109 11.198,-6.23 3.335,-6.171 3.034,-6.018 11.57,-5.878 6.803,0.111 6.845,0.118 8.2,1.219 m -30.364,36.296 c -6.936,1.464 -18.37,16.026 -19.065,24.28 -0.433,5.138 -1.128,6.076 -4.972,6.716 -4.445,0.739 -10.454,4.338 -14.967,8.966 -5.226,5.359 -5.174,5.197 -4.999,15.389 l 0.132,7.646 1.682,3.258 c 2.415,4.678 4.322,5.907 7.538,4.857 3.197,-1.044 3.692,-4.287 1.395,-9.142 -2.075,-4.385 -0.825,-10.001 3.127,-14.056 1.57,-1.611 12.595,-6.956 15.424,-7.478 4.328,-0.799 5.023,-1.938 5.031,-8.239 0.007,-5.923 -0.015,-5.883 7.946,-13.927 8.526,-8.615 8.672,-8.714 13.364,-9.103 5.83,-0.483 7.672,-3.112 4.617,-6.592 -2.254,-2.567 -10.274,-3.838 -16.253,-2.575 m 89.697,10.942 c -4.781,2.337 -5.935,3.796 -5.475,6.928 0.442,3.013 2.99,3.724 6.617,1.848 2.467,-1.277 9.108,-1.777 12.273,-0.925 3.394,0.914 7.013,5.033 10.438,11.88 4.565,9.125 4.878,9.366 12.601,9.701 10.003,0.434 15.213,4.695 17.181,14.053 1.081,5.136 3.642,7.57 7.966,7.57 4.572,0 6.261,-6.55 3.109,-12.059 -0.699,-1.22 -1.404,-3.215 -1.627,-4.596 -0.378,-2.347 -3.032,-8.34 -4.358,-9.843 -1.999,-2.265 -7.747,-4.291 -12.908,-4.55 -7.643,-0.385 -8.154,-0.769 -12.412,-9.338 -5.668,-11.407 -7.29,-12.393 -20.405,-12.405 l -9.429,-0.009 -3.571,1.745 M 215.2,122.374 c -0.55,0.18 -3.34,1.496 -6.2,2.924 l -5.2,2.595 -8.2,0.199 -8.2,0.199 -4.6,2.326 c -8.056,4.074 -10.461,7.154 -10.727,13.736 -0.271,6.702 0.782,8.601 4.767,8.601 2.329,0 3.517,-0.928 5.051,-3.943 1.689,-3.318 5.353,-6.603 9.709,-8.704 5.35,-2.58 5.22,-2.562 8.314,-1.097 6.15,2.914 10.302,2.158 15.465,-2.816 6.205,-5.978 7.612,-6.146 16.039,-1.914 10.155,5.1 14.017,3.478 10.237,-4.301 -1.822,-3.75 -2.037,-3.957 -6.455,-6.23 l -3.4,-1.749 -7.8,-0.077 c -4.29,-0.043 -8.25,0.07 -8.8,0.251 M 69.532,163.957 c -1.597,1.013 -2.135,1.766 -4.305,6.023 l -2.481,4.866 -0.219,5.677 c -0.448,11.627 1.455,15.764 7.451,16.198 4.775,0.345 6.352,-3.763 3.544,-9.232 -2.21,-4.306 -1.851,-6.856 1.514,-10.746 6.55,-7.57 2.201,-17.672 -5.504,-12.786"
       inkscape:connector-curvature="0"
       style="fill:#000000;fill-rule:evenodd;stroke:none;fill-opacity:1" />
    <path
       id="path1"
       d="m 164.668,29.088 c -0.725,0.455 -2.022,2.357 -3.6,5.278 -3.427,6.339 -3.24,6.235 -11.198,6.23 l -6.47,-0.005 -2.6,-1.295 c -3.184,-1.586 -3.192,-1.586 -6.4,-0.052 -2.043,0.976 -3.381,1.304 -6.245,1.529 -6.387,0.502 -9.404,3.165 -13.9,12.269 -4.727,9.572 -7.54,11.149 -14.199,7.958 -4.331,-2.075 -5.215,-1.969 -12.109,1.454 -3.874,1.924 -6.653,3.03 -8.528,3.395 -3.823,0.745 -5.134,1.893 -7.703,6.747 -2.992,5.652 -2.916,5.221 -2.917,16.564 0,12.138 -0.031,12.256 -3.774,14.349 -1.306,0.73 -3.135,2.028 -4.064,2.884 -0.929,0.856 -2.56,2 -3.625,2.542 -2.793,1.422 -3.344,2.167 -6.916,9.35 l -3.22,6.478 0,3.386 c 0,3.046 0.14,3.679 1.4,6.307 2.66,5.551 1.325,9.427 -4.274,12.415 -5.044,2.691 -5.158,11.815 -0.22,17.635 3.232,3.811 3.649,7.408 1.101,9.494 -0.672,0.55 -1.894,1.571 -2.714,2.269 L 41,177.537 40.882,188.57 c -0.134,12.507 -0.094,12.722 3.067,16.372 0.925,1.069 2.237,3.049 2.915,4.4 0.678,1.352 1.991,3.358 2.918,4.458 2.876,3.41 3.078,3.89 3.421,8.095 0.486,5.961 6.11,16.923 9.788,19.078 1.192,0.699 2.03,1.649 2.914,3.304 2.814,5.267 3.93,5.723 14.01,5.723 l 7.863,0 5.677,-2.8 c 7.379,-3.639 7.731,-3.616 10.144,0.66 0.726,1.286 3.414,4.462 6.186,7.309 2.967,3.048 5.307,5.833 5.927,7.058 1.236,2.438 1.229,2.433 5.468,4.599 3.337,1.706 3.445,1.731 8.6,1.982 4.653,0.227 5.458,0.376 7.414,1.378 3.052,1.562 4.394,1.456 8.206,-0.646 5.876,-3.242 5.237,-7.099 -1.681,-10.159 -1.211,-0.535 -3.218,-1.852 -4.46,-2.925 -1.243,-1.073 -3.352,-2.501 -4.688,-3.174 -1.336,-0.672 -3.496,-2.111 -4.8,-3.199 -1.304,-1.087 -3.535,-2.563 -4.957,-3.279 -3.694,-1.86 -7.289,-5.455 -8.966,-8.965 -0.746,-1.562 -2.283,-3.891 -3.416,-5.178 -1.133,-1.286 -2.572,-3.446 -3.2,-4.8 -0.863,-1.862 -2.318,-3.677 -5.984,-7.461 -5.663,-5.846 -5.901,-6.263 -6.274,-11 -0.232,-2.935 -0.533,-4.097 -1.629,-6.29 -0.74,-1.48 -1.345,-3.001 -1.345,-3.381 0,-0.38 -0.392,-2.29 -0.872,-4.245 -1.936,-7.895 5.689,-13.038 15.165,-10.229 l 2.893,0.857 2.907,-1.06 c 1.599,-0.584 3.807,-1.779 4.907,-2.655 4.721,-3.764 5.239,-3.997 8.898,-3.997 5.051,0 4.938,-0.107 9.724,9.184 3.794,7.367 4.28,8.117 5.955,9.203 1.002,0.65 2.544,2.122 3.426,3.271 0.881,1.149 2.498,2.615 3.592,3.258 1.094,0.643 3.068,2.07 4.385,3.17 1.317,1.101 3.364,2.43 4.549,2.954 1.184,0.524 3.17,1.814 4.412,2.866 1.243,1.052 2.544,2.131 2.893,2.398 0.348,0.266 2.028,0.751 3.731,1.077 1.704,0.326 3.668,0.937 4.366,1.357 4.842,2.919 8.495,1.77 9.474,-2.979 0.626,-3.035 1.199,-4.113 3.594,-6.757 1.869,-2.065 2.358,-3.149 2.976,-6.602 0.315,-1.763 0.763,-2.327 3.13,-3.944 1.265,-0.864 2.241,-1.966 2.908,-3.282 0.553,-1.09 2.61,-3.731 4.572,-5.868 3.022,-3.291 3.933,-4.629 5.96,-8.753 1.821,-3.706 2.753,-5.142 3.902,-6.011 2.777,-2.1 4.153,-3.634 4.153,-4.629 0,-5.362 6.105,-11.7 11.269,-11.7 4.972,0 7.531,3.42 7.531,10.063 0,6.92 1.132,8.346 6.582,8.292 2.607,-0.025 3.598,-0.223 5.218,-1.042 4.614,-2.333 8.221,-0.91 9.797,3.866 1.12,3.392 -5.141,16.636 -10.427,22.059 -6.061,6.217 -5.515,9.464 1.586,9.433 3.598,-0.015 4.76,-0.478 7.879,-3.136 2.141,-1.825 4.354,-2.948 5.806,-2.948 1.894,0 4.168,-1.05 6.114,-2.822 2.117,-1.928 4.164,-3.178 5.205,-3.178 2.359,0 4.709,-0.985 7.146,-2.996 1.434,-1.183 3.842,-2.774 5.351,-3.536 3.265,-1.648 7.499,-5.823 9.089,-8.962 2.219,-4.379 6.193,-4.541 10.923,-0.446 4.027,3.487 6.549,3.833 11.358,1.558 7.9,-3.738 12.18,0.127 12.162,10.982 -0.011,7.164 -0.15,7.659 -3.09,11 -0.871,0.99 -2.204,3.029 -2.962,4.532 -0.759,1.502 -2.081,3.493 -2.94,4.425 -0.858,0.931 -2.154,2.744 -2.879,4.028 -1.873,3.319 -2.8,3.888 -6.865,4.211 -4.079,0.324 -5.079,0.893 -6.501,3.699 -1.592,3.141 -5.452,6.938 -8.739,8.597 -1.533,0.773 -3.921,2.368 -5.307,3.543 -2.398,2.035 -3.561,2.558 -6.976,3.14 -1.551,0.264 -2.365,0.964 -4.319,3.714 -0.66,0.929 -1.91,2.052 -2.778,2.494 -3.462,1.766 -0.746,5.087 4.914,6.008 1.225,0.2 3.355,0.913 4.734,1.586 3.254,1.587 2.803,1.664 9.416,-1.598 5.426,-2.676 5.91,-2.836 9.453,-3.135 7.316,-0.618 11.683,-3.673 12.655,-8.854 0.338,-1.802 0.862,-2.758 2.832,-5.169 1.329,-1.627 2.76,-3.63 3.179,-4.452 0.8,-1.569 2.526,-3.169 3.418,-3.169 2.272,0 4.662,-1.007 7.036,-2.966 3.518,-2.901 3.944,-3.083 8.014,-3.42 4.565,-0.378 5.209,-0.85 7.616,-5.573 l 1.9,-3.729 0,-12.667 0,-12.668 -1.4,-2.921 c -2.332,-4.865 -1.777,-7.643 1.897,-9.505 6.14,-3.111 8.849,-7.38 8.855,-13.951 l 0.005,-4.8 -2.131,-4.366 c -1.172,-2.401 -2.796,-5.101 -3.609,-6 -3.172,-3.508 -3.545,-5.212 -1.869,-8.547 0.522,-1.038 1.238,-3.237 1.591,-4.887 0.354,-1.65 0.851,-3.72 1.106,-4.6 0.993,-3.425 -2.658,-9.687 -6.895,-11.825 -3.544,-1.789 -3.891,-3.034 -1.937,-6.965 l 1.187,-2.39 0,-9.484 c 0,-12.537 -0.115,-12.782 -7.789,-16.57 l -4.39,-2.166 -9.186,0 c -5.635,0 -10.094,0.187 -11.532,0.484 -2.992,0.618 -3.493,0.308 -4.403,-2.725 -1.715,-5.719 -7.811,-16.802 -10.725,-19.5 -3.523,-3.261 -4.258,-3.457 -13.021,-3.468 -9.053,-0.011 -9.034,-0.003 -15.558,-6.395 -4.702,-4.606 -6.717,-5.997 -8.683,-5.995 -0.502,10e-4 -2.218,-0.385 -3.813,-0.858 l -2.9,-0.86 -2.9,0.86 c -6.457,1.914 -11.738,1.134 -15.906,-2.348 -3.978,-3.324 -3.477,-3.256 -22.911,-3.096 -15.295,0.127 -17.079,0.211 -18.965,0.891 l -2.081,0.751 -2.919,-1.125 c -2.656,-1.024 -4.334,-2.1 -8.28,-5.309 -1.797,-1.461 -14.083,-1.932 -16.17,-0.619 m -0.662,37.392 c 6.325,2.704 5.146,8.107 -1.896,8.69 -4.692,0.389 -4.838,0.488 -13.364,9.103 -7.961,8.044 -7.939,8.004 -7.946,13.927 -0.008,6.301 -0.703,7.44 -5.031,8.239 -2.829,0.522 -13.854,5.867 -15.424,7.478 -3.952,4.055 -5.202,9.671 -3.127,14.056 2.297,4.855 1.802,8.098 -1.395,9.142 -3.216,1.05 -5.123,-0.179 -7.538,-4.857 l -1.682,-3.258 -0.132,-7.646 c -0.175,-10.192 -0.227,-10.03 4.999,-15.389 4.513,-4.628 10.522,-8.227 14.967,-8.966 3.844,-0.64 4.539,-1.578 4.972,-6.716 0.695,-8.254 12.129,-22.816 19.065,-24.28 2.66,-0.562 11.861,-0.238 13.532,0.477 M 264.2,75.954 c 3.098,1.426 6.22,5.308 9.376,11.66 4.258,8.569 4.769,8.953 12.412,9.338 5.161,0.259 10.909,2.285 12.908,4.55 1.326,1.503 3.98,7.496 4.358,9.843 0.223,1.381 0.928,3.376 1.627,4.596 3.152,5.509 1.463,12.059 -3.109,12.059 -4.324,0 -6.885,-2.434 -7.966,-7.57 -0.627,-2.984 -3.209,-8.585 -4.462,-9.681 -3.029,-2.651 -7.36,-4.14 -12.719,-4.372 -7.723,-0.335 -8.036,-0.576 -12.601,-9.701 -3.425,-6.847 -7.044,-10.966 -10.438,-11.88 -3.165,-0.852 -9.806,-0.352 -12.273,0.925 -3.627,1.876 -6.175,1.165 -6.617,-1.848 -0.46,-3.132 0.694,-4.591 5.475,-6.928 l 3.571,-1.745 9.429,0.009 c 8.3,0.008 9.621,0.097 11.029,0.745 m -29,47.995 c 4.418,2.273 4.633,2.48 6.455,6.23 3.78,7.779 -0.082,9.401 -10.237,4.301 -8.427,-4.232 -9.834,-4.064 -16.039,1.914 -5.163,4.974 -9.315,5.73 -15.465,2.816 -3.094,-1.465 -2.964,-1.483 -8.314,1.097 -4.356,2.101 -8.02,5.386 -9.709,8.704 -1.534,3.015 -2.722,3.943 -5.051,3.943 -3.985,0 -5.038,-1.899 -4.767,-8.601 0.266,-6.582 2.671,-9.662 10.727,-13.736 l 4.6,-2.326 8.2,-0.199 8.2,-0.199 5.2,-2.595 c 6.863,-3.426 6.095,-3.263 15,-3.175 l 7.8,0.077 3.4,1.749 M 75.942,163.37 c 3.412,1.764 2.926,8.945 -0.906,13.373 -3.365,3.89 -3.724,6.44 -1.514,10.746 2.808,5.469 1.231,9.577 -3.544,9.232 -5.996,-0.434 -7.899,-4.571 -7.451,-16.198 l 0.219,-5.677 2.481,-4.866 c 3.374,-6.619 6.714,-8.679 10.715,-6.61"
       inkscape:connector-curvature="0"
       style="fill:none;fill-rule:evenodd;stroke:none" />
  </g>
</svg>
